<svg xmlns="http://www.w3.org/2000/svg" width="27" height="27" viewBox="0 0 27 27"><g><g><path fill="#766259" d="M13.39.312c7.292 0 13.204 5.905 13.204 13.188S20.682 26.687 13.39 26.687C6.099 26.687.187 20.783.187 13.5.187 6.217 6.1.312 13.391.312zM9.815 8.304l-.019 9.59h4.338c1.8 0 3.671-.93 3.671-2.782 0-.797-.097-1.262-.62-1.771a2.147 2.147 0 0 0-.637-.451c-.178-.084-.705-.234-.784-.297.921-.52 1.37-.982 1.37-2.168.002-1.42-1.272-2.121-2.77-2.121zm2.472 2.52v-.765c1.027 0 2.273-.185 2.273.941 0 1.217-1.101 1.069-2.273 1.069zm0 5.305v-2.386c1.268 0 2.927-.263 2.898 1.193-.028 1.396-1.614 1.193-2.898 1.193z"/></g></g></svg>