<svg xmlns="http://www.w3.org/2000/svg" width="330" height="36" viewBox="0 0 330 36"><defs><filter id="v424a" width="200%" height="200%" x="-50%" y="-50%"><feGaussianBlur in="SourceGraphic" result="FeGaussianBlur1093Out" stdDeviation="1 1"/></filter><mask id="v424b"><path fill="#fff" d="M18 0h294c9.941 0 18 8.059 18 18s-8.059 18-18 18H18C8.059 36 0 27.94 0 18S8.059 0 18 0z"/></mask><clipPath id="v424c"><path fill="#fff" d="M16.5 11a5.5 5.5 0 1 1 0 11 5.5 5.5 0 0 1 0-11z"/></clipPath><clipPath id="v424d"><path fill="#fff" d="M20 18.999l4 5"/></clipPath></defs><g><g><path fill="#fff" d="M18 0h294c9.941 0 18 8.059 18 18s-8.059 18-18 18H18C8.059 36 0 27.94 0 18S8.059 0 18 0z"/><path fill="#603a1a" fill-opacity=".22" d="M-2 39V-3h334v42zm2-20c0 9.941 8.059 18 18 18h294c9.941 0 18-8.059 18-18S321.94 1 312 1H18C8.059 1 0 9.059 0 19z" filter="url(#v424a)" mask="url(&quot;#v424b&quot;)"/></g><g><path fill="none" stroke="#5f3a19" stroke-miterlimit="20" stroke-width="4" d="M16.5 11a5.5 5.5 0 1 1 0 11 5.5 5.5 0 0 1 0-11z" clip-path="url(&quot;#v424c&quot;)"/></g><g><path fill="none" stroke="#5f3a19" stroke-miterlimit="20" stroke-width="4" d="M20 18.999l4 5" clip-path="url(&quot;#v424d&quot;)"/></g></g></svg>