<svg xmlns="http://www.w3.org/2000/svg" width="27" height="27" viewBox="0 0 27 27"><g><g><path fill="#766259" d="M13.203.312c7.292 0 13.203 5.905 13.203 13.188s-5.911 13.187-13.203 13.187S0 20.783 0 13.5C0 6.217 5.911.312 13.203.312zM9.335 8.3C8.6 8.299 8 8.899 8 9.634v7.73c0 .734.6 1.335 1.335 1.335h7.73c.734 0 1.335-.6 1.335-1.335v-7.73c0-.734-.6-1.335-1.335-1.335zm6.24 1.155h1.176a.47.47 0 0 1 .469.469v1.12a.47.47 0 0 1-.469.469h-1.175a.47.47 0 0 1-.468-.469v-1.12a.47.47 0 0 1 .468-.469zm1.65 3.243v4.393a.415.415 0 0 1-.414.413H9.569a.415.415 0 0 1-.414-.413v-4.393h.955a3.04 3.04 0 0 0-.133.892c0 1.73 1.447 3.133 3.233 3.133 1.785 0 3.232-1.403 3.232-3.133 0-.31-.046-.61-.133-.892zm-4.015-1.245c1.153 0 2.088.907 2.088 2.024 0 1.118-.935 2.024-2.088 2.024-1.154 0-2.089-.906-2.089-2.024 0-1.117.935-2.024 2.089-2.024z"/></g></g></svg>