<svg xmlns="http://www.w3.org/2000/svg" width="27" height="27" viewBox="0 0 27 27"><g><g><path fill="#766259" d="M13.61.312C20.9.312 26.811 6.217 26.811 13.5s-5.91 13.187-13.203 13.187C6.317 26.687.406 20.783.406 13.5.406 6.217 6.317.312 13.61.312z"/></g><g><path fill="#fff" d="M12.701 5.899L11.585 9.59v2.618h-.96v-2.5l-1.14-3.809h.966l.622 2.521h.06l.594-2.521zm.292 6.075c-.223-.233-.335-.549-.335-.944V8.618c0-.36.115-.648.344-.861.23-.214.537-.32.925-.32.353 0 .641.112.866.337.225.225.337.515.337.87v2.404c0 .399-.11.71-.33.937-.22.225-.523.339-.908.34h-.008c-.37-.001-.668-.118-.89-.351zm.542-3.391v2.534c0 .128.03.227.09.297.062.07.148.105.26.105a.362.362 0 0 0 .275-.107.41.41 0 0 0 .102-.295V8.583a.32.32 0 0 0-.104-.247.394.394 0 0 0-.273-.093.351.351 0 0 0-.253.093.33.33 0 0 0-.097.247zm3.898-1.03h.852v4.655h-.852v-.514c-.157.19-.32.334-.49.432a.99.99 0 0 1-.494.148c-.197 0-.346-.069-.446-.207-.1-.138-.149-.346-.15-.622V7.554h.853v3.567c0 .11.018.19.053.24.036.049.093.073.173.073.063 0 .142-.031.237-.097.096-.065.184-.15.264-.25zm-3.264 5.38c1.081 0 2.142.021 3.18.065a1.39 1.39 0 0 1 1.387 1.392c.045.609.065 1.217.064 1.826.001.609-.019 1.217-.064 1.826a1.39 1.39 0 0 1-1.387 1.392 75.503 75.503 0 0 1-3.195.065h-.309c-1.086 0-2.152-.02-3.195-.065a1.39 1.39 0 0 1-1.386-1.392 23.345 23.345 0 0 1-.064-1.826c-.002-.609.018-1.217.064-1.826 0-.768.62-1.392 1.386-1.392a75.228 75.228 0 0 1 3.35-.064h.169zm-4.14 1.08v.627h.68v3.694h.658V14.64h.68v-.628zm2.912 3.725c-.066.044-.12.066-.163.066-.055 0-.094-.016-.119-.05-.024-.034-.037-.088-.037-.164v-2.444h-.583v2.665c0 .19.034.332.103.427.068.095.17.142.305.142.109 0 .222-.034.338-.102.117-.067.229-.166.336-.296v.352h.584v-3.188h-.584v2.42a.818.818 0 0 1-.18.172zm2.173-2.556a.906.906 0 0 0-.25.222v-1.392h-.59v4.322h.59v-.245c.076.097.16.17.249.215.09.047.19.07.305.07.173 0 .305-.06.397-.18.091-.12.137-.294.137-.52v-1.77c0-.26-.049-.458-.146-.594a.488.488 0 0 0-.423-.204c-.09 0-.18.025-.269.076zm.186 2.625c-.033.044-.086.067-.157.067a.299.299 0 0 1-.141-.035.522.522 0 0 1-.139-.111V15.74a.445.445 0 0 1 .121-.098.266.266 0 0 1 .123-.03c.08 0 .14.027.181.083a.406.406 0 0 1 .063.245v1.646c0 .102-.017.175-.05.22zm2.809-1.804c0-.303-.072-.534-.215-.695-.143-.162-.349-.243-.616-.243a.842.842 0 0 0-.639.261c-.165.175-.247.4-.247.677v1.431c0 .307.075.548.225.724.15.175.356.262.617.262.29 0 .51-.082.655-.247.147-.166.22-.412.22-.739v-.24h-.6v.222c0 .188-.02.309-.058.364-.039.054-.107.082-.204.082-.092 0-.158-.032-.196-.097-.039-.065-.059-.181-.059-.349v-.602h1.117zm-1.056-.293c.04-.058.108-.086.2-.086.09 0 .154.028.195.086.04.058.06.154.06.287v.323h-.516v-.323c0-.133.021-.23.061-.287z"/></g></g></svg>